<svg width="128" height="35" viewBox="0 0 128 35" fill="none" xmlns="http://www.w3.org/2000/svg">
<path d="M50.4937 15.3142C49.8187 14.9707 49.3305 14.5335 49.0086 13.9923C48.6866 13.451 48.5308 12.8786 48.5308 12.2645H50.5457C50.5457 12.6079 50.6391 12.9202 50.8365 13.2012C51.0338 13.4823 51.3142 13.7008 51.6881 13.8674C52.062 14.0339 52.4982 14.1172 52.9967 14.1172C54.6273 14.1172 55.4478 13.5655 55.4478 12.4726C55.4478 12.1396 55.3439 11.8689 55.1466 11.6608C54.9493 11.4526 54.6585 11.2757 54.3053 11.1403C53.9418 11.005 53.4849 10.8905 52.924 10.776C52.1555 10.6095 51.4804 10.4222 50.8988 10.1932C50.3172 9.96418 49.8291 9.63111 49.424 9.18354C49.019 8.73597 48.8216 8.15309 48.8216 7.45572C48.8216 6.84162 48.967 6.30038 49.2682 5.82158C49.5694 5.3532 50.016 4.97849 50.6288 4.70787C51.2415 4.43725 52.0101 4.30194 52.9344 4.30194C53.8276 4.30194 54.5858 4.43725 55.2089 4.70787C55.8321 4.97849 56.289 5.36361 56.611 5.86322C56.933 6.36283 57.0784 6.9353 57.0784 7.60144H55.0635C55.0635 7.14347 54.887 6.77917 54.5234 6.48773C54.1599 6.2067 53.6303 6.06098 52.9136 6.06098C52.1555 6.06098 51.6154 6.19629 51.3038 6.4565C50.9923 6.71672 50.8365 7.0602 50.8365 7.45572C50.8365 7.75757 50.9403 8.01778 51.1377 8.22595C51.335 8.43412 51.6362 8.61107 52.0308 8.74638C52.4255 8.88169 52.9448 9.00659 53.5887 9.11068C54.7727 9.32926 55.7074 9.69356 56.4241 10.2036C57.1303 10.7136 57.4834 11.4734 57.4834 12.483C57.4834 13.1804 57.2965 13.7841 56.933 14.2837C56.5695 14.7833 56.0502 15.1684 55.3751 15.4287C54.7 15.6889 53.9107 15.8138 53.0071 15.8138C51.9997 15.8242 51.1584 15.6576 50.4937 15.3142ZM66.9864 11.9314H60.5057C60.568 12.379 60.7134 12.7537 60.9315 13.0763C61.1496 13.399 61.4196 13.6488 61.752 13.8153C62.0843 13.9819 62.4271 14.0756 62.8113 14.0756C63.2995 14.0756 63.6941 13.9819 64.0057 13.7841C64.3173 13.5863 64.5458 13.3157 64.6912 12.9514H66.8203C66.6749 13.4614 66.4152 13.9402 66.0517 14.3774C65.6882 14.8146 65.2312 15.1684 64.6704 15.4287C64.12 15.6889 63.5072 15.8242 62.8529 15.8242C62.0428 15.8242 61.3054 15.6264 60.6511 15.2309C59.9968 14.8354 59.4775 14.3045 59.1036 13.628C58.7297 12.9514 58.5428 12.2124 58.5428 11.411C58.5428 10.6095 58.7297 9.8705 59.1036 9.19395C59.4775 8.51739 59.9864 7.98656 60.6511 7.59103C61.3054 7.19551 62.0428 6.99775 62.8529 6.99775C63.663 6.99775 64.39 7.19551 65.0235 7.58063C65.6571 7.96574 66.1556 8.48617 66.5087 9.14191C66.8618 9.78723 67.0384 10.5054 67.0384 11.2652C67.028 11.4526 67.0176 11.6712 66.9864 11.9314ZM65.0339 10.4222C65.0027 10.1099 64.8885 9.82887 64.6912 9.56866C64.4835 9.30844 64.2238 9.10027 63.8915 8.94414C63.5591 8.78801 63.2164 8.71515 62.8321 8.71515C62.3128 8.71515 61.8455 8.86087 61.43 9.15231C61.0146 9.44375 60.7342 9.8705 60.5784 10.4326H65.0339V10.4222ZM70.4968 7.24755V8.75679C70.6942 8.2884 70.985 7.9137 71.3693 7.65348C71.7535 7.39327 72.2001 7.24755 72.7298 7.24755H73.623V8.93373H72.844C72.3975 8.93373 72.0028 9.03782 71.6601 9.2564C71.3173 9.47498 71.0577 9.78723 70.8707 10.2036C70.6838 10.6199 70.5903 11.1195 70.5903 11.7024V15.5744H68.6378V7.24755H70.4968ZM73.9449 7.24755H76.0221L77.9539 12.2749L78.172 13.1492L78.3797 12.2853L80.3115 7.24755H82.399L79.0755 15.5744H77.258L73.9449 7.24755ZM91.1958 11.9314H84.7047C84.767 12.379 84.9124 12.7537 85.1305 13.0763C85.3486 13.399 85.6186 13.6488 85.951 13.8153C86.2729 13.9819 86.626 14.0756 87.0103 14.0756C87.4984 14.0756 87.8931 13.9819 88.2047 13.7841C88.5163 13.5968 88.7447 13.3157 88.8901 12.9514H91.0192C90.8738 13.4614 90.6142 13.9402 90.2507 14.3774C89.8872 14.8146 89.4302 15.1684 88.8694 15.4287C88.3189 15.6889 87.7062 15.8242 87.0519 15.8242C86.2418 15.8242 85.5044 15.6264 84.8501 15.2309C84.1958 14.8354 83.6765 14.3045 83.3026 13.628C82.9287 12.9514 82.7417 12.2124 82.7417 11.411C82.7417 10.6095 82.9287 9.8705 83.3026 9.19395C83.6765 8.51739 84.1854 7.98656 84.8501 7.59103C85.5044 7.19551 86.2418 6.99775 87.0519 6.99775C87.8619 6.99775 88.589 7.19551 89.2225 7.58063C89.856 7.96574 90.3545 8.48617 90.7077 9.14191C91.0608 9.78723 91.2373 10.5054 91.2373 11.2652C91.227 11.4526 91.2166 11.6712 91.1958 11.9314ZM89.2329 10.4222C89.2017 10.1099 89.0875 9.82887 88.8901 9.56866C88.6824 9.30844 88.4228 9.10027 88.0904 8.94414C87.7685 8.78801 87.4154 8.71515 87.0311 8.71515C86.5118 8.71515 86.0444 8.86087 85.629 9.15231C85.2136 9.44375 84.9331 9.8705 84.7774 10.4326H89.2329V10.4222ZM94.6958 7.24755V8.75679C94.8931 8.2884 95.184 7.9137 95.5682 7.65348C95.9525 7.38286 96.3991 7.24755 96.9288 7.24755H97.822V8.93373H97.043C96.5964 8.93373 96.2018 9.03782 95.859 9.2564C95.5163 9.47498 95.2566 9.78723 95.0697 10.2036C94.8828 10.6199 94.7893 11.1195 94.7893 11.7024V15.5744H92.8368V7.24755H94.6958ZM99.2137 4.16663H101.166V15.5744H99.2137V4.16663ZM111.313 11.9314H104.822C104.884 12.379 105.03 12.7537 105.248 13.0763C105.466 13.399 105.736 13.6488 106.068 13.8153C106.39 13.9819 106.743 14.0756 107.128 14.0756C107.616 14.0756 108.01 13.9819 108.322 13.7841C108.634 13.5968 108.862 13.3157 109.007 12.9514H111.137C110.991 13.4614 110.732 13.9402 110.368 14.3774C110.005 14.8146 109.548 15.1684 108.987 15.4287C108.436 15.6889 107.824 15.8242 107.169 15.8242C106.359 15.8242 105.622 15.6264 104.967 15.2309C104.313 14.8354 103.794 14.3045 103.42 13.628C103.046 12.9514 102.859 12.2124 102.859 11.411C102.859 10.6095 103.046 9.8705 103.42 9.19395C103.794 8.51739 104.303 7.98656 104.967 7.59103C105.622 7.19551 106.359 6.99775 107.169 6.99775C107.979 6.99775 108.706 7.19551 109.34 7.58063C109.973 7.96574 110.472 8.48617 110.825 9.14191C111.178 9.78723 111.355 10.5054 111.355 11.2652C111.355 11.4526 111.344 11.6712 111.313 11.9314ZM109.361 10.4222C109.329 10.1099 109.215 9.82887 109.018 9.56866C108.81 9.30844 108.551 9.10027 108.218 8.94414C107.896 8.78801 107.543 8.71515 107.159 8.71515C106.64 8.71515 106.172 8.86087 105.757 9.15231C105.341 9.44375 105.061 9.8705 104.905 10.4326H109.361V10.4222ZM113.962 15.4183C113.421 15.1476 113.027 14.7937 112.757 14.3462C112.497 13.8986 112.362 13.4302 112.362 12.9202L114.232 12.9306C114.252 13.3261 114.398 13.6488 114.699 13.8986C114.99 14.1484 115.405 14.2629 115.945 14.2629C116.433 14.2629 116.807 14.1692 117.057 13.9819C117.306 13.7945 117.43 13.5343 117.43 13.2116C117.43 12.9827 117.368 12.8057 117.233 12.66C117.098 12.5143 116.911 12.4206 116.672 12.3373C116.423 12.2645 116.091 12.1916 115.675 12.1292C114.772 12.0147 114.045 11.7544 113.515 11.3485C112.975 10.953 112.705 10.3493 112.705 9.54784C112.705 9.03782 112.829 8.59025 113.068 8.19473C113.307 7.80961 113.671 7.50777 114.138 7.29959C114.605 7.09142 115.177 6.97693 115.831 6.97693C116.485 6.97693 117.077 7.09142 117.586 7.31C118.095 7.53899 118.49 7.85125 118.77 8.25718C119.051 8.66311 119.186 9.12109 119.186 9.65192L117.275 9.63111C117.254 9.30844 117.119 9.05864 116.87 8.86087C116.62 8.67352 116.278 8.56944 115.841 8.56944C115.447 8.56944 115.146 8.6527 114.938 8.82965C114.73 9.00659 114.626 9.22517 114.626 9.49579C114.626 9.71437 114.668 9.88091 114.761 10.0058C114.855 10.1307 115.021 10.2348 115.26 10.3181C115.499 10.4013 115.873 10.4846 116.361 10.5575C117.005 10.6511 117.545 10.7865 117.991 10.9634C118.427 11.1403 118.781 11.3901 119.04 11.7336C119.3 12.0771 119.424 12.5247 119.424 13.0867C119.424 13.68 119.279 14.1796 118.978 14.5856C118.677 14.9915 118.272 15.2933 117.742 15.5015C117.212 15.7097 116.62 15.8034 115.935 15.8034C115.156 15.8242 114.502 15.6889 113.962 15.4183ZM122.062 15.4183C121.522 15.1476 121.128 14.7937 120.858 14.3462C120.598 13.8986 120.463 13.4302 120.463 12.9202L122.333 12.9306C122.353 13.3261 122.499 13.6488 122.8 13.8986C123.091 14.1484 123.506 14.2629 124.046 14.2629C124.534 14.2629 124.908 14.1692 125.157 13.9819C125.407 13.7945 125.531 13.5343 125.531 13.2116C125.531 12.9827 125.469 12.8057 125.334 12.66C125.199 12.5143 125.012 12.4206 124.773 12.3373C124.524 12.2645 124.192 12.1916 123.776 12.1292C122.873 12.0147 122.146 11.7544 121.616 11.3485C121.076 10.953 120.806 10.3493 120.806 9.54784C120.806 9.03782 120.93 8.59025 121.169 8.19473C121.408 7.80961 121.772 7.50777 122.239 7.29959C122.706 7.09142 123.278 6.97693 123.932 6.97693C124.586 6.97693 125.178 7.09142 125.687 7.31C126.196 7.53899 126.591 7.85125 126.871 8.25718C127.152 8.66311 127.287 9.12109 127.287 9.65192L125.376 9.63111C125.355 9.30844 125.22 9.05864 124.97 8.86087C124.721 8.67352 124.379 8.56944 123.942 8.56944C123.548 8.56944 123.246 8.6527 123.039 8.82965C122.831 9.00659 122.727 9.22517 122.727 9.49579C122.727 9.71437 122.769 9.88091 122.862 10.0058C122.956 10.1307 123.122 10.2348 123.361 10.3181C123.6 10.4013 123.973 10.4846 124.462 10.5575C125.106 10.6511 125.646 10.7865 126.092 10.9634C126.528 11.1403 126.882 11.3901 127.141 11.7336C127.401 12.0771 127.525 12.5247 127.525 13.0867C127.525 13.68 127.38 14.1796 127.079 14.5856C126.778 14.9915 126.373 15.2933 125.843 15.5015C125.313 15.7097 124.721 15.8034 124.036 15.8034C123.257 15.8242 122.592 15.6889 122.062 15.4183ZM51.605 21.3511H48.3335V19.5504H56.881V21.3511H53.6095V30.5627H51.605V21.3511ZM64.7639 26.9197H58.2727C58.335 27.3672 58.4804 27.742 58.6985 28.0646C58.9167 28.3873 59.1867 28.6371 59.519 28.8036C59.841 28.9702 60.1941 29.0638 60.5784 29.0638C61.0665 29.0638 61.4612 28.9702 61.7728 28.7724C62.0843 28.5746 62.3128 28.304 62.4582 27.9397H64.5873C64.4419 28.4497 64.1823 28.9285 63.8188 29.3657C63.4553 29.8028 62.9983 30.1567 62.4374 30.417C61.887 30.6772 61.2742 30.8125 60.6199 30.8125C59.8098 30.8125 59.0724 30.6147 58.4181 30.2192C57.7638 29.8237 57.2445 29.2928 56.8706 28.6163C56.4968 27.9397 56.3098 27.2007 56.3098 26.3993C56.3098 25.5978 56.4968 24.8588 56.8706 24.1822C57.2445 23.5057 57.7534 22.9748 58.4181 22.5793C59.0724 22.1838 59.8098 21.986 60.6199 21.986C61.43 21.986 62.157 22.1838 62.7906 22.5689C63.4241 22.954 63.9226 23.4745 64.2757 24.1302C64.6289 24.7755 64.8054 25.4937 64.8054 26.2535C64.8054 26.4409 64.795 26.6699 64.7639 26.9197ZM62.8113 25.4104C62.7802 25.0982 62.6659 24.8172 62.4686 24.5569C62.2609 24.2967 62.0012 24.0886 61.6689 23.9324C61.3366 23.7763 60.9938 23.7034 60.6095 23.7034C60.0903 23.7034 59.6229 23.8492 59.2075 24.1406C58.792 24.432 58.5116 24.8588 58.3558 25.4209H62.8113V25.4104ZM67.7238 30.2296C67.1215 29.8341 66.6541 29.3032 66.3217 28.6267C65.979 27.9501 65.8128 27.2111 65.8128 26.4097C65.8128 25.6082 65.979 24.8692 66.3217 24.2031C66.6645 23.5369 67.1318 22.9957 67.7238 22.6001C68.3158 22.2046 68.9805 22.0069 69.7075 22.0069C70.3826 22.0069 70.985 22.1526 71.5147 22.444C72.0443 22.7355 72.439 23.1414 72.709 23.6618V22.2567H74.5681V30.5835H72.709V29.1783C72.439 29.6988 72.0443 30.1047 71.5147 30.3961C70.985 30.6876 70.393 30.8333 69.7179 30.8333C68.9909 30.8229 68.3262 30.6251 67.7238 30.2296ZM71.4212 28.6579C71.7951 28.4289 72.0859 28.1167 72.304 27.7211C72.5221 27.3256 72.6259 26.8885 72.6259 26.4097C72.6259 25.9309 72.5117 25.4937 72.2936 25.0982C72.0755 24.7027 71.7847 24.3904 71.4108 24.151C71.0369 23.922 70.6319 23.8075 70.1853 23.8075C69.7387 23.8075 69.3336 23.922 68.9597 24.1406C68.5859 24.3592 68.295 24.661 68.0769 25.0566C67.8588 25.4521 67.7446 25.8996 67.7446 26.4097C67.7446 26.9301 67.8588 27.3881 68.0769 27.7836C68.295 28.1791 68.5962 28.481 68.9701 28.6891C69.344 28.8973 69.7491 29.0014 70.1853 29.0014C70.6319 29.0014 71.0473 28.8869 71.4212 28.6579ZM89.3679 23.0477C89.8976 23.7451 90.1572 24.7651 90.1572 26.087V30.5731H88.2255V26.1286C88.2255 25.3376 88.0697 24.7547 87.7685 24.3696C87.4673 23.9845 87.0311 23.8075 86.4702 23.8075C86.1171 23.8075 85.7952 23.9116 85.4836 24.1302C85.172 24.3384 84.9331 24.6402 84.7462 25.0253C84.5593 25.4104 84.4658 25.8476 84.4658 26.3264V30.5731H82.534V26.1286C82.534 25.3376 82.3782 24.7547 82.077 24.3696C81.7759 23.9949 81.3396 23.8075 80.7892 23.8075C80.4361 23.8075 80.1141 23.9116 79.8025 24.1302C79.491 24.3384 79.2521 24.6402 79.0652 25.0253C78.8782 25.4104 78.7847 25.8476 78.7847 26.3264V30.5731H76.853V22.2463H78.6809L78.7017 23.5369C78.9198 23.0789 79.2729 22.7146 79.7402 22.4232C80.218 22.1318 80.7477 21.986 81.35 21.986C82.0355 21.986 82.6171 22.1422 83.0741 22.4648C83.5311 22.7875 83.8842 23.2455 84.1127 23.87C84.4658 23.2351 84.8812 22.7667 85.3797 22.4544C85.8783 22.1422 86.4183 21.986 87.0207 21.986C88.0697 21.9964 88.8486 22.3399 89.3679 23.0477Z" fill="white"/>
<path fill-rule="evenodd" clip-rule="evenodd" d="M5 0C2.23858 0 0 2.23858 0 5V30C0 32.7614 2.23858 35 5 35H30C32.7614 35 35 32.7614 35 30V5C35 2.23858 32.7614 0 30 0H5ZM22.5774 10.5921V12.0141C22.5774 12.4632 22.9388 12.8299 23.3739 12.8224H25.4462C25.8887 12.8224 26.25 12.4557 26.25 12.0066V10.1955C26.25 9.74644 25.8887 9.37971 25.4462 9.37971H23.7574C23.101 9.37971 22.5701 8.84086 22.5701 8.17477V6.46091C22.5701 6.01186 22.2087 5.64514 21.7662 5.64514H13.2412C12.7987 5.64514 12.4373 6.01186 12.4373 6.46091V8.18226C12.4373 8.84834 11.9064 9.3872 11.25 9.3872H9.55384C9.11136 9.3872 8.75001 9.75392 8.75001 10.203V14.8282C8.75001 15.2772 9.11136 15.6439 9.55384 15.6439H11.25C11.9064 15.6439 12.4373 16.1828 12.4373 16.8489V18.5702C12.4373 19.0193 12.7987 19.386 13.2412 19.386H21.3827C22.0391 19.386 22.5701 19.9248 22.5701 20.5909V24.4303C22.5701 25.0964 22.0391 25.6352 21.3827 25.6352H13.6246C12.9683 25.6352 12.4373 25.0964 12.4373 24.4303V23.0083C12.4373 22.5518 12.076 22.185 11.6261 22.1925H9.55384C9.11136 22.1925 8.75001 22.5592 8.75001 23.0083V24.8045C8.75001 25.2535 9.11136 25.6202 9.55384 25.6202H11.25C11.9064 25.6202 12.4373 26.1591 12.4373 26.8252V28.539C12.4373 28.9881 12.7987 29.3548 13.2412 29.3548H21.7662C22.2087 29.3548 22.5701 28.9881 22.5701 28.539V26.8252C22.5701 26.1591 23.101 25.6202 23.7574 25.6202H25.4462C25.8887 25.6202 26.25 25.2535 26.25 24.8045V20.1868C26.25 19.7377 25.8887 19.371 25.4462 19.371H23.7574C23.101 19.371 22.5701 18.8322 22.5701 18.1661V16.4522C22.5701 16.0032 22.2087 15.6364 21.7662 15.6364H13.6246C12.9683 15.6364 12.4373 15.0976 12.4373 14.4315V10.5921C12.4373 9.92605 12.9683 9.3872 13.6246 9.3872H21.3901C22.0465 9.3872 22.5774 9.92605 22.5774 10.5921Z" fill="url(#paint0_linear_918_1706)"/>
<defs>
<linearGradient id="paint0_linear_918_1706" x1="-9.70749" y1="46.1421" x2="62.5596" y2="-26.8549" gradientUnits="userSpaceOnUse">
<stop offset="0.286108" stop-color="#E46E46"/>
<stop offset="0.605844" stop-color="#FCFF60"/>
</linearGradient>
</defs>
</svg>
