<svg width="11" height="18" viewBox="0 0 11 18" fill="none" xmlns="http://www.w3.org/2000/svg">
<path d="M10.0418 16.3621V13.1364C10.0418 11.2298 9.29737 9.93621 7.58598 9.4071C9.42326 8.73933 10.0655 7.49319 10.0837 5.23263V3.66355H8.81752V1.88465H7.54037V0.222528C7.45826 0.222528 0.521484 0.220703 0.521484 0.220703V17.9422H2.62697V10.2883H5.12654C6.35444 10.2883 7.91257 10.6168 7.91257 12.9631V16.364C7.91257 16.9989 7.93446 17.6776 8.1534 17.9422H10.2808C10.0618 17.6137 10.0399 16.9989 10.0399 16.364L10.0418 16.3621ZM5.15026 8.61891H2.62879V1.88648C2.62879 1.88648 5.20865 1.88648 6.62994 1.8883V3.66537H7.93811V5.23445V5.76903C7.93811 7.63368 7.25757 8.61891 5.15209 8.61891H5.15026Z" fill="white"/>
</svg>
