<svg width="10" height="19" viewBox="0 0 10 19" fill="none" xmlns="http://www.w3.org/2000/svg">
<path d="M0 13.0525V11.8447H2.1292V13.4448C2.1292 15.6835 3.07247 16.4279 5.0028 16.4279C6.80177 16.4279 7.54617 15.7492 7.54617 13.8845V13.4904C7.54617 11.602 6.82366 10.9233 5.50637 10.199L3.11444 8.84157C1.42677 7.82896 0.264554 6.64486 0.264554 4.32226C0.264554 1.6676 1.73328 0 4.86961 0C8.00594 0 9.56225 1.55813 9.56225 4.65067V5.59394H7.43487V4.51931C7.43487 2.32625 6.4916 1.73328 4.84772 1.73328C3.20384 1.73328 2.39011 2.32625 2.39011 4.01574V4.27847C2.39011 5.85667 3.18012 6.55911 4.29854 7.19586L6.68865 8.55694C8.44382 9.58779 9.69361 10.6843 9.69361 13.4922C9.69361 16.541 8.29057 18.1648 4.97726 18.1648C1.66395 18.1648 0 16.4717 0 13.0525Z" fill="white"/>
</svg>
